<svg width="21" height="20" viewBox="0 0 21 20" fill="none" xmlns="http://www.w3.org/2000/svg">
<path fill-rule="evenodd" clip-rule="evenodd" d="M8.70622 0.0571918C4.50113 0.647515 1.18558 3.78026 0.208879 8.08602C0.001861 8.99869 -0.065515 10.0685 0.0716591 10.2644C0.264848 10.5402 0.646058 10.5673 0.854147 10.3199C0.975257 10.176 0.995465 10.0675 1.04473 9.29665C1.10195 8.40087 1.43139 7.23084 1.90339 6.24679C2.38881 5.23479 2.88997 4.51009 3.65257 3.71726C4.69851 2.62993 5.838 1.90425 7.23949 1.43298C8.07106 1.15333 8.70925 1.04842 9.74862 1.02058C11.0107 0.986725 11.8588 1.1158 12.9434 1.50665C14.2869 1.99085 15.4677 2.74624 16.5153 3.79157C16.9392 4.2146 17.0294 4.34442 16.8664 4.29701C16.8215 4.28398 16.246 4.26684 15.5874 4.25893L14.3899 4.24458L14.2685 4.36551C13.9986 4.63441 14.1103 5.10195 14.4662 5.19312C14.5634 5.21798 15.1354 5.25178 15.7372 5.26817C16.339 5.28456 17.1326 5.31683 17.5008 5.33984C18.5283 5.40409 18.5926 5.34151 18.5302 4.33771C18.5096 4.00479 18.478 3.18761 18.4602 2.52176C18.4371 1.65495 18.4101 1.27672 18.3654 1.18997C18.2115 0.89169 17.8409 0.825664 17.5888 1.05168L17.4367 1.18797L17.4526 2.24993L17.4685 3.31188L17.0335 2.89245C15.4977 1.41128 13.6859 0.491529 11.5233 0.095233C10.9352 -0.0125133 9.35489 -0.033885 8.70622 0.0571918ZM19.4043 9.56462C19.2093 9.68554 19.1504 9.87305 19.1207 10.4688C19.0475 11.9333 18.4872 13.5571 17.5841 14.9211C16.1029 17.1585 13.9359 18.5506 11.3708 18.9128C10.5376 19.0305 9.18107 18.9897 8.39681 18.8235C7.31744 18.5947 6.20529 18.1314 5.2636 17.5182C4.53158 17.0416 3.77797 16.4089 3.38931 15.9447L3.19067 15.7074L4.42351 15.7386C5.7967 15.7733 5.82533 15.7686 5.97969 15.4823C6.0588 15.3356 6.06313 15.2908 6.01428 15.1277C5.91497 14.7962 5.84801 14.7772 4.63197 14.7353C4.04295 14.7149 3.20645 14.6786 2.77309 14.6545C1.56209 14.5872 1.57173 14.5764 1.63347 15.9325C1.6568 16.4443 1.6919 17.3 1.71146 17.834L1.74704 18.8049L1.89813 18.9399C2.15451 19.1689 2.51597 19.1055 2.67187 18.8041C2.72369 18.7039 2.73193 18.4779 2.71303 17.6778L2.68937 16.6769L3.10192 17.0766C3.67241 17.6294 3.94159 17.8464 4.61242 18.2944C5.83427 19.1104 7.01822 19.5912 8.49669 19.8718C9.20514 20.0063 10.5794 20.042 11.3137 19.9451C13.5996 19.6432 15.5004 18.7137 17.0879 17.1213C18.8839 15.3198 20.0119 12.8595 20.1416 10.4607C20.1749 9.846 20.1411 9.71259 19.9174 9.57621C19.7319 9.46311 19.5737 9.45953 19.4043 9.56462Z" fill="url(#paint0_radial_102_845)"/>
<defs>
<radialGradient id="paint0_radial_102_845" cx="0" cy="0" r="1" gradientUnits="userSpaceOnUse" gradientTransform="translate(8.91618 9.21429) rotate(108.364) scale(9.784 13.4246)">
<stop stop-color="#6F6F6F"/>
<stop offset="1" stop-color="#4E4E4E"/>
</radialGradient>
</defs>
</svg>
