<svg width="29" height="25" viewBox="0 0 29 25" fill="none" xmlns="http://www.w3.org/2000/svg">
<path fill-rule="evenodd" clip-rule="evenodd" d="M0.456353 0.0954578C0.237079 0.203647 0 0.584958 0 0.829431C0 1.06743 0.167829 1.38966 0.359562 1.51984C0.508599 1.62107 0.738471 1.63413 2.86319 1.6621L5.20269 1.69291L5.49602 3.01755C5.65732 3.7461 5.88639 4.77193 6.00505 5.29716C6.12377 5.82239 6.48488 7.45817 6.80753 8.93221C7.13019 10.4063 7.47675 11.9727 7.57761 12.4132C7.67853 12.8538 7.84217 13.5885 7.94136 14.0459C8.04049 14.5034 8.13956 14.9482 8.16144 15.0345C8.19637 15.172 8.16347 15.2157 7.89287 15.3911C7.49148 15.6512 7.10813 16.0867 6.90777 16.5104C6.76699 16.808 6.74746 16.928 6.74697 17.4962C6.74648 18.0929 6.76126 18.1744 6.93796 18.5474C7.27966 19.2684 7.97894 19.8159 8.74175 19.9597C8.92431 19.9941 9.38177 20.0237 9.75833 20.0255L10.4431 20.0289L10.095 20.1402C9.07322 20.467 8.38157 21.4149 8.37979 22.4908C8.3772 24.0596 9.80411 25.2587 11.3084 24.9518C13.2276 24.5604 13.9842 22.2441 12.6565 20.8247C12.3059 20.4498 12.0544 20.288 11.593 20.1404C11.2506 20.0309 11.3461 20.0289 16.6966 20.0289C22.0048 20.0289 22.1402 20.0318 21.8103 20.1382C21.322 20.2958 21.1396 20.4043 20.7991 20.7402C20.4482 21.0863 20.1721 21.6304 20.0789 22.1597C19.9044 23.1501 20.5167 24.3084 21.4525 24.7581C22.3873 25.2073 23.5332 25.0091 24.2718 24.2704C25.027 23.5153 25.2076 22.4195 24.7439 21.4065C24.4713 20.8111 23.7702 20.2424 23.1198 20.0891C22.9408 20.0469 23.0555 20.0331 23.6279 20.0282C24.4587 20.021 24.665 19.9471 24.8912 19.5761C25.1145 19.2099 24.9948 18.7043 24.6327 18.4835C24.4311 18.3606 24.3432 18.3591 16.7623 18.359C9.24937 18.3587 9.09072 18.3562 8.8439 18.2368C8.7054 18.1698 8.54416 18.0338 8.48557 17.9346C8.27338 17.5755 8.4125 17.0057 8.76085 16.807C8.8752 16.7417 10.412 16.72 16.6685 16.6952C23.9538 16.6663 24.4445 16.6577 24.6001 16.5557C24.6913 16.496 24.8117 16.3772 24.8676 16.292C24.9235 16.2066 25.2667 15.0911 25.6303 13.813C25.994 12.5348 26.7526 9.86716 27.3163 7.88483C27.8799 5.90249 28.341 4.21126 28.3409 4.12655C28.3405 3.91011 28.1321 3.593 27.895 3.44852C27.6968 3.32764 27.5635 3.32604 17.4895 3.32585L7.28471 3.3256L7.217 3.05667C7.17979 2.90874 7.03765 2.27803 6.90118 1.65502C6.76028 1.01155 6.60483 0.45576 6.54137 0.368272C6.47988 0.283557 6.33454 0.165756 6.21835 0.106548C6.02667 0.00877102 5.75854 -0.00108656 3.327 8.40554e-05C1.05035 0.00119306 0.618206 0.0155482 0.456353 0.0954578Z" fill="white"/>
</svg>
