<svg width="11" height="8" viewBox="0 0 11 8" fill="none" xmlns="http://www.w3.org/2000/svg">
<path fill-rule="evenodd" clip-rule="evenodd" d="M6.85273 2.88532L3.98011 5.77064L2.59013 4.37239C1.82566 3.60332 1.17423 2.96065 1.14254 2.94421C1.11085 2.92778 1.06579 2.91931 1.04242 2.92543C0.978826 2.94206 0 3.93392 0 3.98174C0 4.00445 0.0152786 4.05177 0.033963 4.08692C0.0526237 4.12204 0.934693 5.01686 1.9941 6.07539C3.62898 7.70893 3.9303 8 3.98652 8C4.04271 8 4.30132 7.75015 5.69697 6.34738C6.60132 5.43844 8.13734 3.89622 9.11037 2.92023C10.6397 1.38629 10.8795 1.13641 10.8795 1.07707C10.8795 1.01927 10.8001 0.928757 10.3768 0.504195C9.93511 0.0612563 9.86501 0 9.79971 0C9.73245 0 9.45145 0.275134 6.85273 2.88532Z" fill="#756532"/>
</svg>
