<svg width="28" height="21" viewBox="0 0 28 21" fill="none" xmlns="http://www.w3.org/2000/svg">
<path fill-rule="evenodd" clip-rule="evenodd" d="M10.47 0.142405C9.97461 0.458424 9.9489 0.740901 10.2039 3.06197C10.2987 3.9242 10.5222 6.01376 10.7007 7.70542L11.0252 10.7811L10.8892 11.0554C10.7083 11.42 10.4606 11.6021 10.0913 11.6421C9.71464 11.6828 9.35593 11.4951 9.16716 11.1587C9.02599 10.907 9.02467 10.8964 8.49915 5.9057C8.16079 2.69287 8.17988 2.81551 8.02819 2.8764C7.7586 2.98468 6.75556 3.80396 6.12085 4.4344C5.01295 5.53492 4.18049 6.70544 3.49122 8.13212C2.4052 10.38 1.94818 12.5867 2.00789 15.2937L2.01792 15.7494H14.0028H25.9876L25.9942 15.2572C26.0317 12.4396 25.6065 10.3928 24.5143 8.13212C23.6061 6.25212 22.1919 4.49958 20.6467 3.33876C19.9449 2.81157 19.8718 2.78146 19.8259 3.00065C19.8063 3.09456 19.6151 4.86117 19.4011 6.92653C19.18 9.061 18.9662 10.8151 18.9059 10.9907C18.7589 11.4187 18.4589 11.6296 17.997 11.6296C17.5702 11.6296 17.3204 11.4668 17.1165 11.0555L16.9805 10.7813L17.3395 7.37737C17.537 5.50517 17.7606 3.41561 17.8364 2.73385C18.054 0.777578 18.0158 0.448799 17.5356 0.142405C17.3226 0.00648976 17.1628 0 14.0028 0C10.8427 0 10.6829 0.00648976 10.47 0.142405ZM0.989387 17.9613C-0.0871589 18.3698 -0.346436 19.829 0.516613 20.6221C0.661058 20.7547 0.85609 20.8939 0.950157 20.9313C1.18045 21.0229 26.8251 21.0229 27.0554 20.9313C27.3337 20.8206 27.7421 20.4023 27.8784 20.0886C28.0413 19.7133 28.0404 19.1481 27.8764 18.7702C27.7219 18.4142 27.3326 18.0613 26.9686 17.9471C26.5806 17.8255 1.31089 17.8392 0.989387 17.9613Z" fill="white"/>
</svg>
