<svg width="24" height="25" viewBox="0 0 24 25" fill="none" xmlns="http://www.w3.org/2000/svg">
<path fill-rule="evenodd" clip-rule="evenodd" d="M14.1232 0.939286V1.87852L13.7905 1.91331C13.6076 1.93241 11.5043 1.94805 9.11645 1.94805C5.70871 1.94805 4.7631 1.96261 4.71981 2.01569C4.68945 2.05292 3.66753 3.73918 2.44892 5.76299C1.23025 7.7868 0.180736 9.52787 0.116667 9.63203C0.0525977 9.7362 0.000108241 9.83972 1.55158e-08 9.86201C-0.00010821 9.88431 0.565963 9.90238 1.2579 9.90211L2.51602 9.90162L7.05628 6.98263L11.5965 4.06364L11.8182 4.19064C12.3633 4.50292 13.5495 5.18393 14.7455 5.87127C20.2103 9.01185 21.1268 9.5395 21.2931 9.64085C21.4359 9.72798 21.5843 9.73988 22.5299 9.74004C23.5162 9.74026 23.6016 9.73274 23.5694 9.64886C23.5411 9.57516 21.528 6.27473 19.7799 3.43615C19.5966 3.13853 19.3122 2.67587 19.1477 2.40801L18.8488 1.921L17.7576 1.90633L16.6665 1.89172V0.945833V0H15.3948H14.1232V0.939286ZM10.4976 6.48463C9.85774 6.86618 7.73923 8.12289 5.78983 9.27733C3.84042 10.4317 2.19069 11.4105 2.1237 11.4523L2.00195 11.5285V16.9114V22.2944H1.27143H0.540909V23.6472V25H11.8775H23.2141V23.6472V22.2944H22.5106H21.8071V16.861V11.4277L21.4689 11.2411C21.283 11.1385 20.5098 10.7068 19.7509 10.2818C18.9919 9.85687 17.9449 9.27208 17.424 8.9823C16.1551 8.2763 12.326 6.1395 11.9813 5.94513C11.8301 5.85985 11.6962 5.79021 11.6837 5.79042C11.6713 5.79064 11.1375 6.10303 10.4976 6.48463ZM6.68268 16.2067V18.6959L5.20812 18.7103L3.73355 18.7247V16.2067V13.6887L5.20812 13.7031L6.68268 13.7175V16.2067ZM20.0626 16.2202L20.0766 18.7229H18.615H17.1535V16.2058V13.6887L18.601 13.7031L20.0485 13.7175L20.0626 16.2202ZM13.7444 18.1818V22.4567H11.7152H9.68593V18.1818V13.9069H11.7152H13.7444V18.1818Z" fill="white"/>
</svg>
