<svg width="21" height="20" viewBox="0 0 21 20" fill="none" xmlns="http://www.w3.org/2000/svg">
<path fill-rule="evenodd" clip-rule="evenodd" d="M10.0182 0.0211477C9.96555 0.0360511 9.87359 0.0760872 9.81383 0.110128C9.69704 0.176617 0.452868 7.34355 0.290355 7.49359C0.120674 7.65025 0 7.93815 0 8.18632C0 8.30548 0.047058 8.49572 0.104282 8.60791C0.127172 8.65277 0.408828 9.0277 0.730207 9.44108C1.19469 10.0386 1.33779 10.2087 1.42805 10.2709C1.73488 10.4822 2.1003 10.5077 2.42595 10.3403C2.48089 10.3121 2.82767 10.0543 3.19659 9.76742C3.56551 9.48055 4.54178 8.72229 5.36608 8.08241C6.19039 7.44255 7.62642 6.32768 8.55727 5.60496C9.48812 4.88221 10.2595 4.29089 10.2715 4.29089C10.2835 4.29089 12.0262 5.63699 14.1443 7.28219C16.2623 8.92742 18.0518 10.3038 18.121 10.3408C18.353 10.4649 18.6446 10.4843 18.8878 10.3919C19.1275 10.3008 19.187 10.2403 19.7613 9.50296C20.059 9.12075 20.3339 8.76248 20.3721 8.70676C20.6106 8.3592 20.5883 7.89933 20.3166 7.56437C20.2761 7.51442 19.5722 6.9527 18.7523 6.31607C17.9324 5.67943 16.6108 4.65332 15.8153 4.0358C15.0198 3.41828 13.5719 2.29375 12.5977 1.53688C11.3611 0.576076 10.7806 0.137734 10.6745 0.0845555C10.5364 0.0153624 10.5039 0.00775343 10.3182 0.00123448C10.1924 -0.00318835 10.077 0.00446251 10.0182 0.0211477ZM6.765 7.8091L3.26945 10.5268L3.27495 13.8807L3.28044 17.2345L3.34697 17.3749C3.45821 17.6097 3.65868 17.7762 3.90844 17.8413C4.01924 17.8701 4.48699 17.8738 8.04487 17.8738H12.0564L11.8952 17.7009C11.4709 17.2456 11.0936 16.6365 10.9111 16.1123C10.8695 15.993 10.8106 15.7769 10.78 15.6322C10.7311 15.4003 10.7245 15.3214 10.7246 14.9707C10.7246 14.5308 10.7577 14.3145 10.8814 13.9438C11.2243 12.9169 12.1768 12.1338 13.3209 11.9383C13.5338 11.9018 13.6303 11.8969 13.9497 11.9062C14.3404 11.9175 14.4932 11.9413 14.7934 12.0375C15.0231 12.1111 15.4284 12.3176 15.632 12.4648L15.8051 12.5899L15.9465 12.484C16.2585 12.2502 16.6537 12.0652 17.0189 11.9821C17.1293 11.9569 17.2315 11.9332 17.2459 11.9292C17.2662 11.9237 17.2721 11.764 17.2721 11.2206V10.519L13.7708 7.80323C11.8451 6.30953 10.2675 5.0883 10.265 5.08939C10.2626 5.09048 8.68754 6.31435 6.765 7.8091ZM13.5964 12.5511C12.5456 12.6656 11.6553 13.407 11.4 14.38C11.3365 14.622 11.3226 15.0703 11.37 15.3503C11.4942 16.0842 11.9636 16.9012 12.6205 17.5263C12.9963 17.8839 13.3529 18.1616 14.2117 18.7655C14.9304 19.2708 15.4962 19.7011 15.6948 19.8934L15.8049 20L15.9253 19.8829C16.1296 19.6843 16.6824 19.2646 17.4398 18.7331C18.0052 18.3362 18.3202 18.1004 18.6125 17.8551C19.5095 17.1021 20.0305 16.3133 20.2203 15.4208C20.2703 15.1859 20.2704 14.6613 20.2205 14.4406C20.1272 14.028 19.9415 13.6792 19.6512 13.3714C19.18 12.8717 18.6002 12.5977 17.8904 12.5392C17.405 12.4991 16.8203 12.6667 16.3775 12.9728C16.2209 13.0811 15.9676 13.3137 15.8603 13.4477L15.8042 13.5177L15.7049 13.4063C15.2113 12.8525 14.6558 12.5791 13.9497 12.5428C13.846 12.5375 13.687 12.5412 13.5964 12.5511Z" fill="#756532"/>
</svg>
