<svg width="19" height="25" viewBox="0 0 19 25" fill="none" xmlns="http://www.w3.org/2000/svg">
<path fill-rule="evenodd" clip-rule="evenodd" d="M8.67275 0.0188258C7.05406 0.224421 5.7516 0.796921 4.57668 1.81942C3.84346 2.45751 3.3288 3.14438 2.84438 4.13154C2.26911 5.3037 2.11409 6.13198 2.11409 8.03362V9.3622L1.28748 9.36242C0.321789 9.36264 0.15831 9.41809 0.0579792 9.77947C-0.0176893 10.0519 -0.0200741 22.677 0.0554318 23.1992C0.161671 23.934 0.677854 24.606 1.34185 24.8742L1.65336 25H9.3774H17.1014L17.413 24.8742C18.0769 24.606 18.5931 23.934 18.6994 23.1992C18.7749 22.677 18.7725 10.0519 18.6968 9.77947C18.5965 9.41809 18.433 9.36264 17.4673 9.36242L16.6407 9.3622V8.03362C16.6407 6.5964 16.5831 6.05539 16.3395 5.20434C16.1891 4.67916 15.7327 3.70696 15.4111 3.22655C14.3465 1.63675 12.6965 0.527311 10.8265 0.143928C10.289 0.0337859 9.09939 -0.0353238 8.67275 0.0188258ZM10.2334 3.21257C10.8526 3.3368 11.6632 3.75385 12.1356 4.19116C12.5922 4.6139 12.8347 4.93484 13.0937 5.45872C13.4437 6.167 13.5034 6.51277 13.5366 8.02066L13.566 9.3622H9.3774H5.1888L5.21823 8.02066C5.24257 6.91225 5.26675 6.60719 5.35743 6.26522C5.67615 5.06281 6.45229 4.1085 7.55144 3.56755C7.85725 3.41702 8.27289 3.26048 8.48304 3.21669C8.98843 3.11137 9.72024 3.10963 10.2334 3.21257ZM10.1228 13.7098C10.7031 13.9238 11.2138 14.4953 11.3811 15.1179C11.5572 15.7733 11.3405 16.5769 10.8543 17.0722L10.602 17.3292L10.7742 18.8477C10.8839 19.8149 10.9295 20.4102 10.8999 20.4878C10.8743 20.5547 10.7992 20.6583 10.733 20.7179C10.6201 20.8196 10.5364 20.8263 9.3774 20.8263C8.21836 20.8263 8.13467 20.8196 8.02176 20.7179C7.95558 20.6583 7.88051 20.5547 7.85492 20.4878C7.82527 20.4102 7.87086 19.8149 7.98057 18.8477L8.15277 17.3292L7.90051 17.0722C7.4143 16.5769 7.19765 15.7733 7.3737 15.1179C7.69578 13.9192 8.94919 13.2772 10.1228 13.7098Z" fill="white"/>
</svg>
