<svg width="31" height="20" viewBox="0 0 31 20" fill="none" xmlns="http://www.w3.org/2000/svg">
<path fill-rule="evenodd" clip-rule="evenodd" d="M6.91863 0.069179C6.61231 0.177516 6.38632 0.430259 6.29392 0.767665C6.25116 0.923941 6.23424 4.19288 6.24552 10.1455L6.26283 19.2835L6.41675 19.531C6.7213 20.0209 7.39322 20.1508 7.84395 19.8071C8.2914 19.4658 8.263 20.1299 8.263 10.004C8.263 -0.0858508 8.28865 0.536891 7.86008 0.216667C7.57475 0.0034685 7.24869 -0.0476179 6.91863 0.069179ZM22.6905 0.0174368C22.4444 0.0630144 22.0981 0.353007 21.9949 0.599913C21.9183 0.783404 21.9035 2.29835 21.9035 10.004C21.9035 20.1299 21.8751 19.4658 22.3226 19.8071C22.7733 20.1508 23.4452 20.0209 23.7498 19.531L23.9037 19.2835V10.004V0.724514L23.7498 0.477017C23.5303 0.123938 23.1069 -0.0597502 22.6905 0.0174368ZM3.65677 3.05291C3.50968 3.13285 3.35878 3.28959 3.27969 3.44462C3.1503 3.69834 3.14781 3.82104 3.14781 10.004C3.14781 16.1894 3.15024 16.3096 3.27982 16.5636C3.45676 16.9104 3.84689 17.1135 4.24889 17.0682C4.58872 17.0299 4.83346 16.8664 5.01682 16.555C5.14556 16.3365 5.14798 16.2145 5.14798 10.004C5.14798 3.7935 5.14556 3.67146 5.01682 3.45294C4.82586 3.12872 4.5802 2.97218 4.21833 2.94418C3.98906 2.92647 3.83449 2.95638 3.65677 3.05291ZM10.0009 3.01402C9.72687 3.1358 9.53413 3.3673 9.45006 3.67559C9.34998 4.04277 9.34998 15.9652 9.45006 16.3324C9.53597 16.6475 9.72949 16.8749 10.0152 16.9967C10.4916 17.1997 11.0543 16.9946 11.2757 16.5373C11.4092 16.2615 11.4108 16.185 11.4108 10.004C11.4108 3.82301 11.4092 3.74654 11.2757 3.47072C11.0543 3.01323 10.4719 2.80463 10.0009 3.01402ZM19.3001 3.05783C19.1034 3.15515 18.9862 3.27358 18.8902 3.47196C18.7575 3.74615 18.7557 3.83219 18.7557 10.004C18.7557 16.185 18.7573 16.2615 18.8908 16.5373C19.1122 16.9946 19.6749 17.1997 20.1514 16.9967C20.437 16.8749 20.6306 16.6475 20.7165 16.3324C20.8165 15.9652 20.8165 4.04277 20.7165 3.67559C20.6306 3.36054 20.437 3.13305 20.1514 3.01133C19.8574 2.88608 19.621 2.899 19.3001 3.05783ZM25.5773 3.03632C25.2704 3.19043 25.0685 3.51203 25.0193 3.92479C24.9969 4.11235 24.9876 6.98079 24.9986 10.2991C25.0181 16.1957 25.0215 16.3375 25.1497 16.555C25.3331 16.8664 25.5778 17.0299 25.9176 17.0682C26.3196 17.1135 26.7098 16.9104 26.8867 16.5636C27.0163 16.3096 27.0187 16.1894 27.0187 10.004C27.0187 3.81855 27.0163 3.69841 26.8867 3.44435C26.6508 2.98195 26.055 2.7963 25.5773 3.03632ZM16.1721 4.64393C15.6459 4.94566 15.6735 4.64892 15.6735 10.004C15.6735 14.5099 15.6799 14.7726 15.7951 14.9891C15.9428 15.2667 16.3459 15.5105 16.6572 15.5105C16.9685 15.5105 17.3715 15.2667 17.5193 14.9891C17.6344 14.7726 17.6409 14.5099 17.6409 10.004C17.6409 5.4981 17.6344 5.23539 17.5193 5.01891C17.3715 4.74125 16.9685 4.49749 16.6572 4.49749C16.5309 4.49749 16.3127 4.5634 16.1721 4.64393ZM0.45899 6.02005C0.34016 6.10124 0.188213 6.27043 0.121453 6.39608C0.0077382 6.61 0 6.84091 0 10.004C0 13.1671 0.0077382 13.398 0.121453 13.6119C0.301796 13.9513 0.610741 14.1355 0.999693 14.1355C1.39087 14.1355 1.66132 13.9907 1.85714 13.6764C1.99938 13.4482 2.00017 13.4282 2.00017 10.004C2.00017 6.57977 1.99938 6.55983 1.85714 6.33155C1.66132 6.0173 1.39087 5.8725 0.999693 5.8725C0.770952 5.8725 0.611396 5.91604 0.45899 6.02005ZM28.6323 5.99854C28.5279 6.06733 28.3803 6.22177 28.3044 6.34172C28.1686 6.55623 28.1664 6.61525 28.1664 10.0033C28.1664 13.4283 28.1671 13.4482 28.3094 13.6764C28.7156 14.3283 29.6835 14.2923 30.0451 13.6119C30.1588 13.398 30.1665 13.1671 30.1665 10.004C30.1665 6.84091 30.1588 6.61 30.0451 6.39608C29.7822 5.90142 29.0795 5.70369 28.6323 5.99854ZM13.0005 6.20007C12.8829 6.27174 12.7282 6.42651 12.6565 6.54409C12.531 6.74975 12.5261 6.88025 12.5261 10.004C12.5261 13.1277 12.531 13.2582 12.6565 13.4639C13.0427 14.0973 13.976 14.0973 14.3622 13.4639C14.4877 13.2582 14.4926 13.1277 14.4926 10.004C14.4926 6.88025 14.4877 6.74975 14.3622 6.54409C14.0841 6.08792 13.448 5.92719 13.0005 6.20007Z" fill="white"/>
</svg>
