<svg width="27" height="25" viewBox="0 0 27 25" fill="none" xmlns="http://www.w3.org/2000/svg">
<path fill-rule="evenodd" clip-rule="evenodd" d="M16.0926 0.0492967C16.013 0.0736093 15.8307 0.152857 15.6874 0.225389C15.3891 0.376475 8.54796 4.92825 8.35021 5.1073L8.21997 5.22521V12.4988V19.7724L8.35021 19.8903C8.57186 20.091 15.4078 24.6309 15.7453 24.8016C15.9764 24.9185 16.1789 24.9702 16.4839 24.9901C16.8681 25.0153 16.9363 25.0019 17.2763 24.8345C17.7081 24.622 17.987 24.2899 18.1562 23.7868C18.259 23.4814 18.2634 23.0198 18.2634 12.4988C18.2634 2.26886 18.2567 1.50741 18.1634 1.20634C17.9385 0.480266 17.2991 -0.00986381 16.5899 0.000150657C16.396 0.00287135 16.1722 0.0249842 16.0926 0.0492967ZM2.14379 5.93445C1.13262 6.20617 0.284342 7.10846 0.0648916 8.14562C0.0204922 8.35546 0 9.7308 0 12.4988C0 15.2668 0.0204922 16.6421 0.0648916 16.852C0.28712 17.9024 1.13765 18.7974 2.16874 19.066C2.44903 19.139 2.89939 19.1558 4.57904 19.1558C6.4092 19.1558 6.64862 19.1454 6.67977 19.0642C6.72567 18.9446 6.72567 6.053 6.67977 5.93335C6.64857 5.85207 6.40909 5.84217 4.55242 5.84559C2.90391 5.8486 2.39311 5.86741 2.14379 5.93445ZM20.4554 9.31025C20.1761 9.48055 20.0868 9.64877 20.0868 10.0046V10.3211L21.1702 11.4099L22.2536 12.4988L21.1702 13.5876L20.0868 14.6765V14.9981C20.0868 15.2365 20.1181 15.3593 20.2077 15.4733C20.4385 15.7667 20.8548 15.8824 21.1471 15.7343C21.2166 15.6991 21.7331 15.2137 22.2948 14.6557C23.2567 13.7002 23.3229 13.6461 23.4341 13.7239C23.499 13.7694 23.9453 14.2131 24.426 14.7098C25.4958 15.8155 25.7118 15.9364 26.2025 15.7035C26.4207 15.6 26.6281 15.2651 26.6281 15.0163C26.6281 14.7348 26.4426 14.4955 25.4508 13.4973L24.4585 12.4988L25.4508 11.5002C26.4426 10.502 26.6281 10.2628 26.6281 9.98128C26.6281 9.73248 26.4207 9.39754 26.2025 9.29404C25.7121 9.06128 25.4969 9.18162 24.4311 10.2843C23.9525 10.7797 23.5058 11.2235 23.4384 11.2706C23.3215 11.3525 23.2707 11.3113 22.2948 10.3419C21.7331 9.78388 21.2166 9.2985 21.1471 9.2633C20.9559 9.1664 20.6581 9.18666 20.4554 9.31025Z" fill="white"/>
</svg>
