<svg width="15" height="15" viewBox="0 0 15 15" fill="none" xmlns="http://www.w3.org/2000/svg">
<path fill-rule="evenodd" clip-rule="evenodd" d="M12.4742 2.50518C11.1586 1.18802 9.40892 0.46232 7.54494 0.461548C3.70402 0.461548 0.578062 3.58742 0.576517 7.42937C0.576002 8.65753 0.896837 9.85641 1.50666 10.9132L0.518066 14.5241L4.21213 13.555C5.23 14.1103 6.37592 14.4029 7.54211 14.4032H7.54502C11.3855 14.4032 14.5118 11.2771 14.5133 7.43495C14.514 5.57294 13.7899 3.82225 12.4742 2.50518ZM7.54494 13.2264H7.54254C6.5033 13.226 5.48406 12.9467 4.59468 12.4191L4.38328 12.2935L2.19116 12.8686L2.77627 10.7313L2.63851 10.5122C2.05873 9.58999 1.75257 8.52414 1.75308 7.4298C1.75429 4.23647 4.35255 1.63846 7.54726 1.63846C9.09427 1.63897 10.5485 2.24219 11.642 3.33696C12.7355 4.43173 13.3373 5.88691 13.3368 7.43452C13.3354 10.6281 10.7373 13.2264 7.54494 13.2264ZM10.7219 8.88858C10.5478 8.80138 9.69174 8.38029 9.53209 8.3221C9.37262 8.26399 9.2564 8.23507 9.14044 8.4093C9.02432 8.58354 8.69069 8.97579 8.58907 9.09191C8.48745 9.20813 8.38599 9.22272 8.21184 9.13552C8.03769 9.0484 7.4767 8.86446 6.8116 8.27129C6.29404 7.8096 5.94463 7.23943 5.843 7.06519C5.74155 6.89079 5.84214 6.80564 5.91939 6.70985C6.10788 6.47579 6.29662 6.2304 6.35464 6.11427C6.41275 5.99806 6.38365 5.89635 6.34005 5.80923C6.29662 5.72211 5.9484 4.86509 5.80335 4.51636C5.6619 4.17699 5.51848 4.22282 5.41153 4.2175C5.31008 4.21244 5.19395 4.21141 5.07782 4.21141C4.96178 4.21141 4.77312 4.25492 4.61348 4.42933C4.45392 4.60365 4.00417 5.02483 4.00417 5.88184C4.00417 6.73886 4.62807 7.56679 4.7151 7.683C4.80213 7.79922 5.94291 9.55789 7.68948 10.312C8.1049 10.4916 8.42917 10.5986 8.68211 10.6788C9.09925 10.8114 9.4787 10.7927 9.77877 10.7478C10.1133 10.6978 10.8088 10.3266 10.954 9.91992C11.0991 9.51317 11.0991 9.16461 11.0555 9.09191C11.0121 9.0193 10.8959 8.97579 10.7219 8.88858Z" fill="white"/>
</svg>
