<svg width="25" height="16" viewBox="0 0 25 16" fill="none" xmlns="http://www.w3.org/2000/svg">
<path fill-rule="evenodd" clip-rule="evenodd" d="M0.0781231 0.0774022C0.0212233 0.133777 0 0.630377 0 1.90777V3.66074L0.280202 3.62945C0.612617 3.59236 1.24294 3.74098 1.67542 3.95841C1.84605 4.04426 2.1829 4.27479 2.42397 4.47075C2.66505 4.66671 3.03125 4.90923 3.23776 5.00973C3.58098 5.17672 3.67473 5.1924 4.3307 5.1924C5.00842 5.1924 5.07157 5.18085 5.47 4.98438C5.70196 4.86995 6.06465 4.62878 6.27597 4.44837C7.58434 3.33139 9.2528 3.33778 10.582 4.46482C10.7953 4.64568 11.1602 4.88337 11.393 4.99302C11.7826 5.17659 11.8704 5.1924 12.4997 5.1924C13.1283 5.1924 13.2174 5.1764 13.6065 4.99367C13.8392 4.88434 14.198 4.6489 14.4038 4.47049C15.71 3.33771 17.4124 3.32907 18.7235 4.44837C18.9348 4.62878 19.2975 4.86995 19.5295 4.98438C19.9279 5.18085 19.991 5.1924 20.6688 5.1924C21.3056 5.1924 21.4265 5.17356 21.7443 5.02508C21.9413 4.93304 22.3075 4.69051 22.5581 4.4861C22.8088 4.2817 23.1534 4.04426 23.324 3.95841C23.7565 3.74098 24.3868 3.59236 24.7193 3.62945L24.9995 3.66074V1.90777C24.9995 0.630377 24.9782 0.133777 24.9213 0.0774022C24.8116 -0.0312833 24.3068 -0.0188991 23.8883 0.102751C23.4322 0.235303 22.9741 0.495632 22.5256 0.877031C22.3286 1.04454 21.9771 1.27127 21.7443 1.38092C21.3589 1.56249 21.2631 1.58029 20.6701 1.58029C20.0758 1.58029 19.9823 1.56281 19.5959 1.37976C19.3632 1.2694 18.9754 1.01771 18.7342 0.820463C17.9554 0.183443 17.2957 -0.0387655 16.3427 0.0150935C15.8848 0.0409587 15.6987 0.0864969 15.2982 0.27065C15.0301 0.393848 14.6498 0.631602 14.4528 0.79892C13.9759 1.20418 13.6309 1.39756 13.1755 1.51508C12.228 1.75961 11.3977 1.53521 10.5371 0.801951C9.89998 0.259104 9.20885 0 8.39826 0C7.56455 0 6.97863 0.230723 6.21731 0.858842C6.00248 1.03609 5.63627 1.27088 5.40353 1.38066C5.01793 1.56256 4.92255 1.58029 4.32933 1.58029C3.73638 1.58029 3.64055 1.56249 3.25514 1.38092C3.0224 1.27127 2.67084 1.04454 2.47391 0.877031C2.02535 0.495632 1.56722 0.235303 1.11117 0.102751C0.692693 -0.0188991 0.187821 -0.0312833 0.0781231 0.0774022ZM0.039517 5.19769C0.0177727 5.2538 0 5.99209 0 6.83842V8.37711L0.212821 8.34292C0.786572 8.25069 1.74137 8.60712 2.37625 9.15062C2.59109 9.33451 2.95671 9.57859 3.18867 9.69301C3.58775 9.88981 3.64914 9.90097 4.32797 9.89993C4.96187 9.89897 5.0872 9.87949 5.40353 9.73249C5.60047 9.64096 5.96667 9.39792 6.21731 9.19235C7.60752 8.05228 9.15996 8.03964 10.5466 9.15713C10.7794 9.34464 11.1602 9.58878 11.393 9.69959C11.7841 9.88574 11.8679 9.90103 12.4997 9.90103C13.1283 9.90103 13.2174 9.88503 13.6065 9.7023C13.8392 9.59297 14.198 9.35754 14.4038 9.17913C15.0245 8.64086 15.8343 8.32074 16.5753 8.32074C17.3473 8.32074 18.0502 8.60906 18.8469 9.25259C19.0615 9.42597 19.3984 9.64277 19.5955 9.73442C19.9136 9.88226 20.0347 9.9009 20.6701 9.89993C21.3026 9.89897 21.4281 9.87942 21.7443 9.73249C21.9413 9.64096 22.3075 9.39792 22.5581 9.19235C23.28 8.60029 24.202 8.24888 24.7866 8.34292L24.9995 8.37711V6.83842C24.9995 5.99209 24.9817 5.2538 24.9599 5.19769C24.9309 5.12267 24.8305 5.09564 24.5812 5.09564C23.9488 5.09564 23.175 5.40048 22.6558 5.85419C22.1627 6.28499 21.7561 6.50327 21.2309 6.61918C20.8098 6.71219 20.6676 6.71716 20.2853 6.65233C19.6746 6.54881 19.3489 6.3942 18.7716 5.9341C17.9716 5.29644 17.4428 5.09564 16.5637 5.09564C15.6663 5.09564 15.264 5.26212 14.1972 6.07485C13.6284 6.50811 13.181 6.66323 12.4997 6.66323C11.8236 6.66323 11.3664 6.50669 10.8224 6.08904C9.76782 5.27928 9.3386 5.09913 8.45893 5.097C7.56462 5.09481 6.91509 5.33811 6.21731 5.93649C5.47638 6.5719 4.65784 6.80159 3.78514 6.61898C3.24524 6.50598 2.90606 6.32944 2.39923 5.8976C1.80973 5.39532 1.06944 5.09564 0.418285 5.09564C0.169007 5.09564 0.0685529 5.12267 0.039517 5.19769ZM0.0813785 10.0044C0.0197261 10.0678 0 10.5908 0 12.1636C0 13.747 0.0192704 14.2543 0.0813785 14.303C0.126169 14.338 0.344133 14.3822 0.565808 14.4011C1.08741 14.4456 1.54971 14.6608 2.11584 15.1225C2.64415 15.5533 3.03809 15.7654 3.56067 15.9002C4.55531 16.1569 5.64617 15.8735 6.4942 15.1381C6.69999 14.9597 7.05877 14.7242 7.29151 14.6149C7.68063 14.4322 7.76969 14.4162 8.39826 14.4162C9.03099 14.4162 9.11328 14.4312 9.505 14.6184C9.73775 14.7296 10.0988 14.9659 10.3073 15.1434C11.6384 16.276 13.2982 16.2836 14.622 15.163C15.233 14.6459 15.7409 14.4285 16.415 14.396C17.2544 14.3554 17.7303 14.5317 18.5166 15.1744C19.8523 16.2661 21.3594 16.2754 22.7681 15.2005C23.0107 15.0154 23.3117 14.8023 23.437 14.7269C23.7302 14.5504 24.3036 14.3839 24.6184 14.3839C24.7952 14.3839 24.8836 14.3488 24.9321 14.2592C24.9744 14.1809 24.9995 13.3899 24.9995 12.1352C24.9995 9.69817 25.0534 9.82169 24.0795 10.0262C23.5307 10.1414 23.0961 10.3602 22.595 10.7734C21.9422 11.3116 21.3641 11.5427 20.6701 11.5427C19.9637 11.5427 19.4082 11.3162 18.7047 10.7412C18.0134 10.1763 17.3709 9.93328 16.5687 9.93328C15.7492 9.93328 15.1408 10.173 14.3567 10.8049C13.6678 11.3599 13.2468 11.5145 12.4346 11.5105C11.8826 11.5078 11.7707 11.4862 11.393 11.309C11.1602 11.1998 10.7647 10.9462 10.5141 10.7454C9.58632 10.002 8.71622 9.78673 7.62959 10.0316C7.12055 10.1463 6.68456 10.3807 6.18476 10.8084C5.11727 11.7219 3.73963 11.7899 2.66876 10.982C1.86904 10.3786 1.68636 10.2627 1.32191 10.1276C0.85213 9.95347 0.194462 9.88813 0.0813785 10.0044Z" fill="white"/>
</svg>
