<svg width="189" height="35" viewBox="0 0 189 35" fill="none" xmlns="http://www.w3.org/2000/svg">
<path d="M51 2L54.5922 13.0557H66.2169L56.8123 19.8885L60.4046 30.9443L51 24.1115L41.5954 30.9443L45.1877 19.8885L35.7831 13.0557H47.4078L51 2Z" fill="#6B93E7" fill-opacity="0.5"/>
<path d="M138 2L141.592 13.0557H153.217L143.812 19.8885L147.405 30.9443L138 24.1115L128.595 30.9443L132.188 19.8885L122.783 13.0557H134.408L138 2Z" fill="#6B93E7" fill-opacity="0.5"/>
<path d="M94.5 0L98.429 12.0922L111.143 12.0922L100.857 19.5656L104.786 31.6578L94.5 24.1844L84.2138 31.6578L88.1428 19.5656L77.8565 12.0922L90.571 12.0922L94.5 0Z" fill="#6B93E7"/>
<path d="M176.5 5L179.306 13.6373H188.388L181.041 18.9754L183.847 27.6127L176.5 22.2746L169.153 27.6127L171.959 18.9754L164.612 13.6373H173.694L176.5 5Z" fill="#6B93E7" fill-opacity="0.3"/>
<path d="M12.5 5L15.3064 13.6373H24.3882L17.0409 18.9754L19.8473 27.6127L12.5 22.2746L5.15268 27.6127L7.95911 18.9754L0.611794 13.6373H9.69357L12.5 5Z" fill="#6B93E7" fill-opacity="0.3"/>
</svg>
