<svg width="14" height="19" viewBox="0 0 14 19" fill="none" xmlns="http://www.w3.org/2000/svg">
<path fill-rule="evenodd" clip-rule="evenodd" d="M4.52032 0.0607692C3.59627 0.247594 2.77452 0.86505 2.382 1.66756C2.12371 2.19562 2.02434 2.96299 2.19339 3.12439C2.3003 3.22646 2.45547 3.22988 2.58095 3.13287C2.65864 3.0728 2.68312 2.99574 2.71225 2.71968C2.75297 2.33426 2.80145 2.17077 2.97045 1.849C3.24632 1.32378 3.77458 0.889118 4.37699 0.69172C4.76288 0.56525 5.45298 0.555705 5.81305 0.671807C6.60546 0.927297 7.1525 1.43853 7.43255 2.18517C7.46931 2.28312 7.51667 2.52064 7.53787 2.71297C7.56876 2.99385 7.59458 3.07683 7.66904 3.13468C7.79392 3.23169 7.94801 3.2254 8.05979 3.11867C8.14464 3.03767 8.14998 3.00109 8.12714 2.65583C8.01454 0.953875 6.27904 -0.294778 4.52032 0.0607692ZM4.82786 2.11103C4.62076 2.18257 4.36243 2.40252 4.25035 2.60267L4.15404 2.77469L4.13172 7.23857C4.11948 9.69371 4.10492 11.7057 4.0994 11.7098C4.09393 11.7138 4.05894 11.7462 4.02171 11.7818C3.98443 11.8174 3.88873 11.8465 3.80897 11.8465C3.67314 11.8465 3.62316 11.7988 3.01682 11.0908C2.3271 10.2855 2.14956 10.1386 1.72231 10.0193C1.21276 9.87699 0.702345 9.9847 0.267166 10.3263L0 10.536L0.272811 11.037C0.932969 12.2489 1.76071 13.7736 2.40988 14.9732C3.63914 17.245 3.82827 17.5736 4.07277 17.8625C4.47425 18.3369 5.04107 18.7017 5.67589 18.8941C5.95332 18.9782 6.05626 18.9819 8.47971 18.9951C11.1747 19.0099 11.2867 19.0033 11.8604 18.7984C12.6639 18.5113 13.4593 17.7045 13.7668 16.8644C14.0003 16.2267 14.0004 16.2241 14 12.5525L13.9995 9.15166L13.899 8.94595C13.8437 8.83281 13.719 8.67183 13.6218 8.58819C13.1699 8.19927 12.4579 8.30982 12.127 8.82022C12.0003 9.01585 11.996 9.03893 11.9751 9.64804C11.9508 10.3545 11.9131 10.4476 11.6519 10.4476C11.3914 10.4476 11.3802 10.4054 11.3645 9.35737L11.3503 8.41111L11.2225 8.19076C11.0159 7.83471 10.7107 7.64933 10.3326 7.6504C10.1186 7.65097 9.76366 7.82451 9.62732 7.99517C9.4135 8.26284 9.39355 8.37906 9.39152 9.37037C9.38928 10.451 9.36748 10.5279 9.06235 10.5293C8.79911 10.5305 8.79458 10.5092 8.77894 9.1928C8.76528 8.03923 8.76144 7.99323 8.66406 7.80439C8.43149 7.35348 7.94422 7.14839 7.42898 7.28457C7.20029 7.34504 6.87258 7.65793 6.80924 7.87627C6.77933 7.97949 6.76145 8.49644 6.76132 9.26287C6.76115 10.083 6.74503 10.5184 6.71237 10.5869C6.68561 10.643 6.60679 10.7114 6.53729 10.7389C6.42775 10.7822 6.39535 10.7779 6.29507 10.7064L6.17933 10.6239L6.15778 6.74043L6.13624 2.85697L6.01438 2.62008C5.78242 2.16908 5.2817 1.95424 4.82786 2.11103Z" fill="#959595" fill-opacity="0.3"/>
</svg>
